<svg width="118" height="35" viewBox="0 0 118 35" fill="none" xmlns="http://www.w3.org/2000/svg">
<rect x="0.395652" y="0.395652" width="116.717" height="34.0261" rx="5.14348" stroke="#00303A" stroke-width="0.791304"/>
<path d="M79.8336 16.7128V18.7069H78.4273V20.0147H79.8336V24.4583C79.8336 25.9756 80.6058 26.5825 82.5485 26.5825C82.8899 26.5825 83.215 26.5464 83.4995 26.503V25.2097C83.2556 25.2314 83.1012 25.2458 82.833 25.2458C81.9632 25.2458 81.5812 24.8846 81.5812 24.0609V20.0147H83.4995V18.7069H81.5812V16.7128H79.8336Z" fill="#00303A"/>
<path d="M88.4484 26.6909C91.0333 26.6909 92.6183 25.1519 92.6183 22.6014C92.6183 20.0653 91.0251 18.5191 88.4484 18.5191C85.8636 18.5191 84.2704 20.0653 84.2704 22.6014C84.2704 25.1519 85.8554 26.6909 88.4484 26.6909ZM88.4484 25.3108C86.9284 25.3108 86.0749 24.321 86.0749 22.6014C86.0749 20.8962 86.9284 19.8991 88.4484 19.8991C89.9603 19.8991 90.8219 20.8962 90.8219 22.6014C90.8219 24.3138 89.9603 25.3108 88.4484 25.3108Z" fill="#00303A"/>
<path d="M93.9744 26.5391H95.7221V21.8933C95.7221 20.7878 96.6568 20.0436 97.9818 20.0436C98.2907 20.0436 98.8109 20.0942 98.9572 20.1375V18.6058C98.7702 18.5624 98.437 18.5408 98.1769 18.5408C97.0226 18.5408 96.0391 19.1043 95.7871 19.8774H95.657V18.6708H93.9744V26.5391Z" fill="#00303A"/>
<path d="M103.296 19.8413C104.589 19.8413 105.434 20.6433 105.475 21.8788H101.004C101.102 20.6505 102.004 19.8413 103.296 19.8413ZM105.467 24.4149C105.142 25.0291 104.418 25.3687 103.362 25.3687C101.963 25.3687 101.061 24.4944 101.004 23.1144V23.0277H107.255V22.4858C107.255 20.0147 105.768 18.5191 103.305 18.5191C100.809 18.5191 99.2241 20.1159 99.2241 22.6303C99.2241 25.1447 100.777 26.6909 103.313 26.6909C105.337 26.6909 106.751 25.8238 107.149 24.4149H105.467Z" fill="#00303A"/>
<path d="M68.3729 23.6335C68.5077 25.5656 70.3191 26.8013 73.0151 26.8013C75.8964 26.8013 77.6993 25.5057 77.6993 23.4388C77.6993 21.8137 76.6715 20.9151 74.1777 20.3983L72.8381 20.1063C71.2543 19.7768 70.614 19.3349 70.614 18.5636C70.614 17.59 71.6081 16.9535 73.0993 16.9535C74.5147 16.9535 75.492 17.5751 75.6689 18.5711H77.5055C77.396 16.7513 75.5931 15.4707 73.1246 15.4707C70.4707 15.4707 68.7015 16.7513 68.7015 18.6759C68.7015 20.2635 69.7041 21.2071 71.903 21.6639L73.47 22.0009C75.0792 22.3379 75.7869 22.8322 75.7869 23.656C75.7869 24.6145 74.6748 25.311 73.1583 25.311C71.5323 25.311 70.4033 24.6595 70.2433 23.6335H68.3729Z" fill="#00303A"/>
<path d="M50.2694 18.5408C49.0664 18.5408 48.026 19.0754 47.4895 19.9714H47.3594V18.6708H45.6768V29.1547H47.4245V25.347H47.5626C48.026 26.1779 49.0258 26.6692 50.2857 26.6692C52.521 26.6692 53.9435 25.1013 53.9435 22.6014C53.9435 20.1014 52.521 18.5408 50.2694 18.5408ZM49.7736 25.2747C48.3105 25.2747 47.392 24.2487 47.392 22.6086C47.392 20.9612 48.3105 19.9352 49.7817 19.9352C51.2611 19.9352 52.1471 20.9395 52.1471 22.6014C52.1471 24.2704 51.2611 25.2747 49.7736 25.2747Z" fill="#00303A"/>
<path d="M60.0587 18.5408C58.8557 18.5408 57.8152 19.0754 57.2787 19.9714H57.1487V18.6708H55.4661V29.1547H57.2137V25.347H57.3519C57.8152 26.1779 58.815 26.6692 60.0749 26.6692C62.3103 26.6692 63.7327 25.1013 63.7327 22.6014C63.7327 20.1014 62.3103 18.5408 60.0587 18.5408ZM59.5628 25.2747C58.0997 25.2747 57.1812 24.2487 57.1812 22.6086C57.1812 20.9612 58.0997 19.9352 59.571 19.9352C61.0503 19.9352 61.9363 20.9395 61.9363 22.6014C61.9363 24.2704 61.0503 25.2747 59.5628 25.2747Z" fill="#00303A"/>
<path d="M42.5413 26.5391H44.5465L40.1571 15.7328H38.1267L33.7373 26.5391H35.675L36.7955 23.6709H41.4292L42.5413 26.5391ZM39.045 17.6949H39.1882L40.949 22.263H37.2758L39.045 17.6949Z" fill="#00303A"/>
<path d="M34.9111 7.58267V12.7957H37.0286C38.7762 12.7957 39.7882 11.8384 39.7882 10.1729C39.7882 8.53279 38.7681 7.58267 37.0286 7.58267H34.9111ZM35.8215 8.31965H36.927C38.1422 8.31965 38.8616 9.00605 38.8616 10.1838C38.8616 11.3796 38.1544 12.0587 36.927 12.0587H35.8215V8.31965Z" fill="#00303A"/>
<path d="M42.8876 12.8716C44.18 12.8716 44.9725 12.1021 44.9725 10.8268C44.9725 9.55879 44.1759 8.78568 42.8876 8.78568C41.5952 8.78568 40.7986 9.55879 40.7986 10.8268C40.7986 12.1021 41.5911 12.8716 42.8876 12.8716ZM42.8876 12.1816C42.1276 12.1816 41.7008 11.6866 41.7008 10.8268C41.7008 9.97424 42.1276 9.47569 42.8876 9.47569C43.6435 9.47569 44.0743 9.97424 44.0743 10.8268C44.0743 11.683 43.6435 12.1816 42.8876 12.1816Z" fill="#00303A"/>
<path d="M51.7216 8.86155H50.8478L50.0593 11.8637H49.9902L49.0798 8.86155H48.2426L47.3322 11.8637H47.2672L46.4747 8.86155H45.5887L46.8079 12.7957H47.7061L48.6165 9.89837H48.6856L49.6001 12.7957H50.5064L51.7216 8.86155Z" fill="#00303A"/>
<path d="M52.7279 12.7957H53.6017V10.4945C53.6017 9.88031 54.0122 9.49737 54.6584 9.49737C55.3046 9.49737 55.6135 9.81167 55.6135 10.4439V12.7957H56.4873V10.2488C56.4873 9.31313 55.9427 8.78568 54.9551 8.78568C54.2885 8.78568 53.8496 9.0494 53.6342 9.48653H53.5692V8.86155H52.7279V12.7957Z" fill="#00303A"/>
<path d="M57.8634 12.7957H58.7372V7.32617H57.8634V12.7957Z" fill="#00303A"/>
<path d="M62.0236 12.8716C63.316 12.8716 64.1085 12.1021 64.1085 10.8268C64.1085 9.55879 63.3119 8.78568 62.0236 8.78568C60.7312 8.78568 59.9346 9.55879 59.9346 10.8268C59.9346 12.1021 60.7271 12.8716 62.0236 12.8716ZM62.0236 12.1816C61.2636 12.1816 60.8368 11.6866 60.8368 10.8268C60.8368 9.97424 61.2636 9.47569 62.0236 9.47569C62.7795 9.47569 63.2103 9.97424 63.2103 10.8268C63.2103 11.683 62.7795 12.1816 62.0236 12.1816Z" fill="#00303A"/>
<path d="M66.7121 12.2069C66.2366 12.2069 65.8911 12.0009 65.8911 11.6469C65.8911 11.3001 66.1675 11.1158 66.7771 11.0797L67.8582 11.0183V11.347C67.8582 11.8348 67.3705 12.2069 66.7121 12.2069ZM66.4885 12.8607C67.0697 12.8607 67.5534 12.6368 67.8175 12.243H67.8866V12.7957H68.7279V10.1079C68.7279 9.277 68.102 8.78568 66.9925 8.78568C65.9886 8.78568 65.2733 9.2192 65.1839 9.89476H66.0293C66.1268 9.61659 66.4642 9.45763 66.9519 9.45763C67.5493 9.45763 67.8582 9.69245 67.8582 10.1079V10.4475L66.6592 10.5089C65.6066 10.5667 65.0132 10.9749 65.0132 11.683C65.0132 12.4019 65.635 12.8607 66.4885 12.8607Z" fill="#00303A"/>
<path d="M71.6932 12.8607C72.3028 12.8607 72.819 12.6042 73.0831 12.1743H73.1522V12.7957H73.9895V7.32617H73.1157V9.48653H73.0506C72.8108 9.05302 72.2988 8.79652 71.6932 8.79652C70.5755 8.79652 69.8562 9.58407 69.8562 10.8268C69.8562 12.0732 70.5674 12.8607 71.6932 12.8607ZM71.9411 9.49376C72.6727 9.49376 73.1319 10.0104 73.1319 10.8304C73.1319 11.6541 72.6767 12.1635 71.9411 12.1635C71.2014 12.1635 70.7584 11.6613 70.7584 10.8268C70.7584 9.99953 71.2055 9.49376 71.9411 9.49376Z" fill="#00303A"/>
<path d="M79.6558 12.8716C80.9482 12.8716 81.7408 12.1021 81.7408 10.8268C81.7408 9.55879 80.9442 8.78568 79.6558 8.78568C78.3634 8.78568 77.5668 9.55879 77.5668 10.8268C77.5668 12.1021 78.3593 12.8716 79.6558 12.8716ZM79.6558 12.1816C78.8958 12.1816 78.4691 11.6866 78.4691 10.8268C78.4691 9.97424 78.8958 9.47569 79.6558 9.47569C80.4118 9.47569 80.8426 9.97424 80.8426 10.8268C80.8426 11.683 80.4118 12.1816 79.6558 12.1816Z" fill="#00303A"/>
<path d="M82.8974 12.7957H83.7713V10.4945C83.7713 9.88031 84.1817 9.49737 84.8279 9.49737C85.4742 9.49737 85.783 9.81167 85.783 10.4439V12.7957H86.6569V10.2488C86.6569 9.31313 86.1122 8.78568 85.1246 8.78568C84.4581 8.78568 84.0192 9.0494 83.8038 9.48653H83.7387V8.86155H82.8974V12.7957Z" fill="#00303A"/>
<path d="M90.6812 7.88252V8.87961H89.9781V9.5335H90.6812V11.7553C90.6812 12.5139 91.0673 12.8174 92.0387 12.8174C92.2094 12.8174 92.372 12.7993 92.5142 12.7777V12.131C92.3923 12.1418 92.3151 12.1491 92.1809 12.1491C91.7461 12.1491 91.5551 11.9684 91.5551 11.5566V9.5335H92.5142V8.87961H91.5551V7.88252H90.6812Z" fill="#00303A"/>
<path d="M93.6871 12.7957H94.561V10.4981C94.561 9.90199 94.9593 9.50098 95.6746 9.50098C96.2923 9.50098 96.6215 9.8189 96.6215 10.4475V12.7957H97.4953V10.256C97.4953 9.32035 96.9141 8.78929 95.9712 8.78929C95.3047 8.78929 94.8373 9.05302 94.6219 9.49376H94.5528V7.32617H93.6871V12.7957Z" fill="#00303A"/>
<path d="M100.648 9.44679C101.294 9.44679 101.716 9.8478 101.737 10.4656H99.5014C99.5502 9.85141 100.001 9.44679 100.648 9.44679ZM101.733 11.7336C101.57 12.0407 101.208 12.2105 100.68 12.2105C99.981 12.2105 99.5299 11.7733 99.5014 11.0833V11.04H102.627V10.769C102.627 9.5335 101.883 8.78568 100.652 8.78568C99.4039 8.78568 98.6114 9.58407 98.6114 10.8413C98.6114 12.0985 99.3876 12.8716 100.656 12.8716C101.668 12.8716 102.375 12.4381 102.574 11.7336H101.733Z" fill="#00303A"/>
<path d="M24.2548 17.6708C24.276 16.2076 25.16 14.8231 26.5624 14.0567C25.6777 12.9335 24.1958 12.2214 22.6541 12.1786C21.0097 12.0251 19.4156 13.0532 18.5776 13.0532C17.7235 13.0532 16.4333 12.1938 15.044 12.2192C13.2332 12.2712 11.545 13.1864 10.664 14.5936C8.77013 17.5082 10.1828 21.7917 11.9969 24.1476C12.9046 25.3012 13.9654 26.5899 15.3534 26.5442C16.7116 26.4941 17.2189 25.7743 18.8585 25.7743C20.4828 25.7743 20.9587 26.5442 22.3749 26.5151C23.8324 26.4941 24.7507 25.3563 25.6265 24.1918C26.2786 23.3698 26.7805 22.4613 27.1134 21.5C25.4006 20.856 24.2568 19.3238 24.2548 17.6708Z" fill="#00303A"/>
<path d="M21.5798 10.6292C22.3745 9.78119 22.766 8.69125 22.6712 7.59082C21.4571 7.70417 20.3356 8.21995 19.5302 9.0354C18.7426 9.83214 18.3327 10.9029 18.4102 11.9613C19.6248 11.9724 20.8187 11.4706 21.5798 10.6292Z" fill="#00303A"/>
</svg>
