<svg width="117" height="35" viewBox="0 0 117 35" fill="none" xmlns="http://www.w3.org/2000/svg">
<g clip-path="url(#clip0_2826_17082)">
<path d="M107.878 0L108.805 0.000976562C109.067 0.00234862 109.336 0.0126953 109.598 0.0126953C110.175 0.018941 110.752 0.0695325 111.321 0.165039C111.891 0.261181 112.443 0.442814 112.959 0.703125C113.991 1.23199 114.831 2.07019 115.362 3.10059C115.622 3.6161 115.801 4.1686 115.895 4.73828C115.99 5.30727 116.044 5.88313 116.055 6.45996V28.3496C116.044 28.9259 115.99 29.5009 115.895 30.0693C115.802 30.6391 115.622 31.1915 115.362 31.707C115.099 32.2198 114.756 32.688 114.347 33.0938C113.941 33.5036 113.472 33.8458 112.958 34.1064C112.442 34.3682 111.889 34.5521 111.319 34.6523C110.751 34.7457 110.177 34.7963 109.602 34.8037C109.34 34.8133 109.071 34.8135 108.809 34.8135H7.25098C6.98919 34.8135 6.7274 34.8037 6.46289 34.8037C5.88798 34.8006 5.31329 34.7548 4.74512 34.667C4.17508 34.5681 3.62279 34.384 3.10742 34.1211C2.59214 33.8601 2.12225 33.5178 1.71582 33.1074C1.30595 32.703 0.963979 32.2345 0.704102 31.7207C0.442587 31.2055 0.261838 30.653 0.166992 30.083C0.0714343 29.5147 0.0197998 28.9395 0.0126953 28.3633C0.00041742 28.0959 2.67943e-09 27.8431 0 27.5703V7.25586C0 6.99244 0.000411681 6.72826 0.0126953 6.46484C0.0198837 5.88912 0.0715237 5.31487 0.166992 4.74707C0.261884 4.17706 0.442668 3.62471 0.704102 3.10938C0.962886 2.59428 1.30257 2.12365 1.70996 1.71582C2.11843 1.3078 2.58858 0.966131 3.10254 0.703125C3.61791 0.441606 4.17015 0.259899 4.74023 0.165039C5.30955 0.0697042 5.88569 0.0180601 6.46289 0.0107422C6.7274 -0.000156076 6.98919 3.73955e-09 7.25098 0H107.878ZM7.25684 0.755859L6.48145 0.766602C5.94168 0.771556 5.40303 0.817454 4.87012 0.90332C4.37608 0.985007 3.89701 1.14113 3.44922 1.36523C3.00447 1.59566 2.59796 1.89348 2.24512 2.24902C1.89177 2.59987 1.5973 3.00561 1.37305 3.4502C1.1455 3.89979 0.98802 4.38169 0.90625 4.87891C0.819958 5.41059 0.774097 5.94868 0.769531 6.4873C0.764072 6.66224 0.755859 7.25586 0.755859 7.25586V27.5576C0.755859 27.5576 0.769531 28.1612 0.769531 28.3428C0.773943 28.8822 0.819806 29.4207 0.90625 29.9531C0.98774 30.4486 1.14512 30.9291 1.37207 31.377C1.59712 31.8221 1.89331 32.2275 2.24902 32.5771C2.5998 32.9304 3.00531 33.2258 3.44922 33.4512C3.89777 33.6772 4.37721 33.8358 4.87207 33.9219C5.40333 34.0067 5.94056 34.0526 6.47852 34.0586C6.73781 34.0681 6.99481 34.0684 7.25684 34.0684V34.0654H108.807C109.063 34.0654 109.327 34.0557 109.578 34.0557C110.116 34.0502 110.653 34.0043 111.185 33.9189C111.683 33.8335 112.167 33.6738 112.618 33.4453C113.063 33.2194 113.469 32.9235 113.82 32.5684C114.172 32.2195 114.466 31.8172 114.693 31.377C114.92 30.9253 115.076 30.4412 115.157 29.9424C115.244 29.4158 115.293 28.8832 115.304 28.3496V6.49219C115.293 5.94893 115.242 5.40712 115.153 4.87109C115.073 4.37826 114.918 3.90019 114.693 3.4541C114.236 2.5616 113.51 1.83405 112.619 1.37402C112.167 1.14709 111.683 0.988516 111.184 0.90332C110.655 0.817909 110.121 0.772052 109.586 0.766602L108.802 0.755859H7.25684Z" fill="#00303A"/>
<path d="M43.0462 23.5325H39.0185L38.0331 26.2281H36.2588L40.2018 16.165H41.8765L45.911 26.2281H44.0534L43.0462 23.5325ZM39.5262 22.1676H42.5289L41.452 19.2851C41.3046 18.8884 41.159 18.4489 41.0153 17.9666C40.8852 18.3925 40.7441 18.8274 40.5922 19.2714L39.5262 22.1676Z" fill="#00303A"/>
<path d="M46.7133 20.5679C46.7133 20.0128 46.6951 19.4014 46.6587 18.7335H48.2692C48.3295 19.0493 48.3714 19.3683 48.3948 19.6889C49.0608 18.961 49.8247 18.597 50.6864 18.597C51.2003 18.5888 51.7051 18.734 52.1361 19.0141C52.5672 19.2941 52.9049 19.6963 53.1062 20.1693C53.3683 20.7153 53.4993 21.4063 53.4993 22.2425C53.5205 23.0143 53.367 23.7808 53.0503 24.485C52.7838 25.0702 52.3472 25.5615 51.7973 25.8949C51.2323 26.222 50.5885 26.3882 49.9357 26.3753C49.4243 26.374 48.9168 26.2868 48.4344 26.1173V29.2073L46.7187 29.3534L46.7133 20.5679ZM51.2241 24.3976C51.5735 23.9281 51.7482 23.2416 51.7482 22.3381C51.7482 21.5 51.6035 20.8927 51.3142 20.516C51.182 20.3348 51.0076 20.1886 50.8062 20.0899C50.6048 19.9912 50.3824 19.943 50.1582 19.9496C49.8349 19.9472 49.5166 20.0286 49.2342 20.1857C48.9361 20.3556 48.6648 20.5685 48.4289 20.8176V24.8316C48.6195 24.9214 48.8202 24.9878 49.0267 25.0295C49.2478 25.0777 49.4733 25.1019 49.6996 25.1019C50.3674 25.1019 50.8756 24.8671 51.2241 24.3976Z" fill="#00303A"/>
<path d="M54.594 20.5679C54.594 20.0128 54.5754 19.4014 54.5381 18.7335H56.15C56.2104 19.0492 56.2519 19.3682 56.2742 19.6889C56.942 18.961 57.7059 18.597 58.5658 18.597C59.08 18.5885 59.585 18.7336 60.0163 19.0137C60.4476 19.2938 60.7856 19.6961 60.987 20.1693C61.2472 20.7153 61.3778 21.4063 61.3787 22.2425C61.4003 23.0142 61.2472 23.7808 60.931 24.485C60.6641 25.0703 60.227 25.5616 59.6767 25.8949C59.1123 26.2222 58.4688 26.3884 57.8164 26.3753C57.3051 26.374 56.7976 26.2868 56.3151 26.1173V29.2074L54.594 29.3589V20.5679ZM59.1049 24.3976C59.4543 23.9281 59.629 23.2416 59.629 22.3381C59.629 21.5001 59.4843 20.8927 59.1949 20.516C59.0627 20.3348 58.8884 20.1886 58.687 20.0899C58.4855 19.9912 58.2631 19.9431 58.0389 19.9496C57.7157 19.9471 57.3973 20.0285 57.1149 20.1857C56.8166 20.3552 56.5453 20.5682 56.3097 20.8176V24.8317C56.4999 24.9212 56.7001 24.9876 56.9061 25.0296C57.1276 25.0777 57.3537 25.1019 57.5803 25.1019C58.25 25.1019 58.7591 24.8671 59.1076 24.3976H59.1049Z" fill="#00303A"/>
<path d="M64.6172 25.7518C63.8837 25.3499 63.2882 24.7364 62.9085 23.9911C62.5108 23.2268 62.312 22.3242 62.312 21.2833C62.312 20.1532 62.5395 19.1937 62.9944 18.4048C63.428 17.6406 64.0795 17.0229 64.8656 16.6305C65.6919 16.2263 66.6019 16.0228 67.5216 16.0368C68.0796 16.0347 68.6358 16.0988 69.1786 16.2279C69.6858 16.3484 70.1782 16.5242 70.6471 16.752L70.209 18.0718C69.3986 17.6614 68.5063 17.4385 67.5981 17.4194C66.957 17.4048 66.3234 17.5592 65.761 17.8671C65.2284 18.172 64.8003 18.6305 64.5326 19.1828C64.225 19.8383 64.0754 20.5568 64.0959 21.2806C64.084 21.9331 64.198 22.5819 64.4316 23.1913C64.6427 23.7297 65.0138 24.1903 65.4948 24.5111C65.978 24.8342 66.5876 24.9961 67.3237 24.997C67.6589 24.9972 67.9936 24.9693 68.3242 24.9138C68.6436 24.862 68.9575 24.7806 69.2618 24.6708V22.6304H66.9416V21.2915H70.9338V25.5225C70.3548 25.7926 69.7485 25.9999 69.1253 26.1408C68.5066 26.2824 67.8739 26.3543 67.2391 26.3551C66.328 26.3808 65.4255 26.1732 64.6172 25.7518Z" fill="#00303A"/>
<path d="M77.1138 26.2287C77.0492 25.901 77.01 25.5688 76.9964 25.2351C76.7089 25.5682 76.3582 25.8409 75.9646 26.0376C75.5202 26.262 75.0279 26.3749 74.5301 26.3665C74.124 26.3716 73.7219 26.2853 73.3536 26.114C73.003 25.9484 72.7094 25.6824 72.5101 25.3497C72.2927 24.9714 72.1854 24.5397 72.2003 24.1036C72.1875 23.7726 72.2518 23.4431 72.3879 23.1412C72.5241 22.8392 72.7285 22.573 72.9851 22.3634C73.5083 21.9312 74.3809 21.7147 75.6029 21.7138C76.0596 21.7133 76.5158 21.7462 76.9677 21.812V21.666C76.9677 21.0036 76.8267 20.5368 76.5446 20.2656C76.2626 19.9945 75.8572 19.858 75.3286 19.8562C74.9322 19.8604 74.5379 19.9141 74.1548 20.0159C73.7796 20.1086 73.414 20.2366 73.0629 20.398L72.7899 19.1478C73.1797 18.9817 73.5847 18.8537 73.9992 18.7657C74.5186 18.6476 75.0498 18.5895 75.5824 18.5923C76.1473 18.577 76.7092 18.6773 77.2339 18.8872C77.6956 19.0911 78.0716 19.4497 78.2971 19.9012C78.5519 20.3798 78.6793 21.0245 78.6793 21.8352V24.8147C78.6793 25.1245 78.697 25.594 78.7352 26.2246L77.1138 26.2287ZM76.0901 24.8406C76.4213 24.6879 76.7187 24.4708 76.965 24.2019V22.8111C76.5849 22.7659 76.2027 22.7404 75.8199 22.7347C75.112 22.7347 74.6225 22.8493 74.3513 23.0786C74.2168 23.1915 74.1099 23.3338 74.039 23.4944C73.968 23.6551 73.9348 23.8298 73.9419 24.0053C73.9419 24.3766 74.0401 24.6495 74.2367 24.8242C74.4596 25.0143 74.7467 25.112 75.0392 25.0972C75.4044 25.0922 75.7637 25.0044 76.0901 24.8406Z" fill="#00303A"/>
<path d="M80.1738 24.4305V15.574L81.8826 15.4375V24.1248C81.8826 24.4441 81.9368 24.6716 82.045 24.8072C82.1108 24.8774 82.1917 24.9317 82.2815 24.966C82.3714 25.0003 82.4679 25.0136 82.5637 25.0051C82.7163 24.9975 82.8675 24.9718 83.0141 24.9287L83.2161 26.157C83.024 26.229 82.8251 26.2812 82.6224 26.3126C82.4033 26.3507 82.1814 26.3703 81.9591 26.3713C80.7689 26.3677 80.1738 25.7207 80.1738 24.4305Z" fill="#00303A"/>
<path d="M84.4458 24.4305V15.574L86.1532 15.4375V24.1248C86.1532 24.4441 86.2078 24.6716 86.317 24.8072C86.3824 24.8774 86.463 24.9318 86.5527 24.9661C86.6424 25.0004 86.7387 25.0137 86.8343 25.0051C86.9873 24.9974 87.139 24.9717 87.2861 24.9287L87.4867 26.157C87.2947 26.2292 87.0957 26.2814 86.893 26.3126C86.6739 26.3507 86.452 26.3703 86.2297 26.3713C85.0395 26.3677 84.4449 25.7207 84.4458 24.4305Z" fill="#00303A"/>
<path d="M94.5988 22.7003H89.6949C89.7741 24.2699 90.522 25.0547 91.9387 25.0547C92.3023 25.0528 92.6645 25.0098 93.0183 24.9264C93.3806 24.8425 93.735 24.7274 94.0775 24.5824L94.4528 25.7562C93.5696 26.1729 92.6026 26.3816 91.6262 26.3663C90.83 26.3663 90.1585 26.2161 89.6117 25.9159C89.0758 25.6227 88.6459 25.168 88.3833 24.6165C88.0923 23.9743 87.9522 23.274 87.9739 22.5693C87.9542 21.8324 88.1036 21.1007 88.4106 20.4305C88.6745 19.8661 89.0983 19.3915 89.6294 19.0657C90.1745 18.7443 90.7983 18.5808 91.431 18.5935C92.1389 18.5935 92.7304 18.7591 93.2053 19.0903C93.6781 19.4192 94.0447 19.8788 94.2603 20.4128C94.4944 20.9955 94.6095 21.6192 94.5988 22.2472V22.7003ZM92.9242 21.6084C92.8928 21.0106 92.7413 20.5629 92.4738 20.264C92.3378 20.1154 92.1709 19.9983 91.9849 19.921C91.7989 19.8436 91.5982 19.8079 91.3969 19.8164C91.1933 19.8102 90.9907 19.8473 90.8025 19.9252C90.6143 20.0031 90.4448 20.12 90.305 20.2681C90.0157 20.5684 89.8269 21.0152 89.7386 21.6084H92.9242Z" fill="#00303A"/>
<path d="M95.9804 20.6164C95.9804 20.2042 95.9622 19.5768 95.9258 18.7342H97.5295C97.5581 18.9431 97.5841 19.1915 97.61 19.4808C97.6359 19.7702 97.6523 20.0063 97.6619 20.1864C97.8341 19.894 98.0304 19.6164 98.2487 19.3566C98.4376 19.1348 98.6657 18.9497 98.9216 18.8107C99.1916 18.666 99.4943 18.5931 99.8006 18.5991C100.031 18.5945 100.261 18.6225 100.483 18.6824L100.267 20.1687C100.087 20.1154 99.8998 20.0896 99.7119 20.0923C99.3364 20.084 98.9675 20.1917 98.6555 20.4007C98.2803 20.6845 97.9542 21.028 97.6905 21.4175V26.2314H95.9804V20.6164Z" fill="#00303A"/>
<path d="M101.509 29.2932C101.3 29.2592 101.094 29.2094 100.892 29.1445L101.203 27.8943C101.319 27.9257 101.465 27.957 101.641 27.9871C101.806 28.0165 101.973 28.032 102.141 28.0335C102.9 28.0335 103.469 27.5449 103.85 26.5676L103.96 26.2947L101.196 18.7389H103.038L104.426 22.9617C104.607 23.5051 104.753 24.0594 104.864 24.6214C104.993 24.0754 105.146 23.5336 105.322 22.9958L106.731 18.7334H108.459L105.703 26.3247C105.496 26.9361 105.214 27.5194 104.862 28.0608C104.594 28.4704 104.228 28.8067 103.796 29.0394C103.335 29.2637 102.826 29.3732 102.313 29.3587C102.044 29.36 101.775 29.3381 101.509 29.2932Z" fill="#00303A"/>
<path d="M36.2529 6.37695H39.347L39.2597 7.12352H37.1592V8.57026H39.1396V9.27043H37.1592V10.8741H39.3716L39.2952 11.6275H36.2529V6.37695Z" fill="#00303A"/>
<path d="M41.4793 8.94833L39.8538 6.37695H40.8842L41.9898 8.2659L43.154 6.37695H44.1558L42.5371 8.91557L44.2895 11.6275H43.2386L41.987 9.56114L40.7136 11.6275H39.7173L41.4793 8.94833Z" fill="#00303A"/>
<path d="M44.9497 6.37695H46.3637C47.0288 6.37695 47.5379 6.51344 47.891 6.78641C48.244 7.05938 48.4201 7.45109 48.4192 7.96154C48.4254 8.28144 48.3422 8.59673 48.1789 8.8719C48.0203 9.13063 47.7905 9.33818 47.517 9.4697C47.2121 9.61323 46.8781 9.68423 46.5411 9.67716C46.3119 9.67336 46.0836 9.64915 45.8587 9.60482V11.6275H44.9524L44.9497 6.37695ZM47.2235 8.72176C47.3226 8.6266 47.3998 8.51103 47.4498 8.38306C47.4998 8.25508 47.5213 8.11777 47.5129 7.98065C47.5129 7.65582 47.4146 7.42243 47.2181 7.28048C47.0215 7.13717 46.7308 7.0662 46.3487 7.0662H45.8587V8.93058C46.0314 8.96111 46.2061 8.97936 46.3814 8.98518C46.6851 9.0047 46.9852 8.91083 47.2235 8.72176Z" fill="#00303A"/>
<path d="M49.3159 6.37695H50.2263V10.8523H52.3991L52.3227 11.6275H49.32L49.3159 6.37695Z" fill="#00303A"/>
<path d="M53.7752 11.37C53.3959 11.1559 53.0893 10.8331 52.8949 10.4433C52.6836 10.0122 52.5787 9.53666 52.5892 9.05663C52.5779 8.55337 52.6894 8.05494 52.914 7.60443C53.1241 7.19989 53.4501 6.86723 53.8503 6.64904C54.2938 6.41471 54.7901 6.29816 55.2916 6.31056C55.7674 6.29769 56.2382 6.41069 56.6564 6.63812C57.0336 6.85198 57.3383 7.17377 57.5313 7.56212C57.7392 7.99084 57.8421 8.46289 57.8315 8.93925C57.8441 9.4482 57.7316 9.95245 57.504 10.4078C57.2942 10.8121 56.9687 11.1448 56.5691 11.3632C56.1296 11.5965 55.6374 11.7126 55.1401 11.7003C54.664 11.7119 54.1933 11.598 53.7752 11.37ZM56.1255 10.7258C56.3808 10.5532 56.5789 10.3086 56.6946 10.0229C56.8253 9.6973 56.8893 9.34877 56.883 8.99794C56.889 8.65443 56.8326 8.31267 56.7165 7.98932C56.6136 7.70653 56.4282 7.46116 56.1842 7.28506C55.9056 7.09954 55.5754 7.0073 55.2411 7.02164C54.9089 7.01121 54.5818 7.10421 54.3048 7.28779C54.0485 7.46638 53.8487 7.71453 53.7288 8.00297C53.5977 8.31572 53.5322 8.65204 53.5364 8.99112C53.5304 9.33906 53.592 9.68486 53.7179 10.0093C53.8278 10.2961 54.0207 10.5437 54.272 10.7204C54.5456 10.9021 54.8691 10.9937 55.1974 10.9824C55.5246 10.992 55.8471 10.9025 56.1227 10.7258H56.1255Z" fill="#00303A"/>
<path d="M58.8428 6.37695H60.4806C61.0793 6.37695 61.5343 6.4966 61.8454 6.73591C61.9988 6.85771 62.1208 7.01442 62.2013 7.19296C62.2818 7.3715 62.3184 7.5667 62.3081 7.76227C62.3133 8.01695 62.2562 8.26905 62.1416 8.49656C62.0412 8.69471 61.902 8.87063 61.7322 9.01384C61.5796 9.1391 61.4083 9.23951 61.2244 9.31138L62.8377 11.6316H61.7868L60.4219 9.55022H59.7545V11.6275H58.8482L58.8428 6.37695ZM60.2636 8.86098C60.4657 8.86535 60.666 8.82136 60.8477 8.73268C61.0117 8.652 61.149 8.52601 61.2435 8.36963C61.3389 8.20389 61.3862 8.01483 61.38 7.82369C61.389 7.71415 61.371 7.60406 61.3274 7.50315C61.2839 7.40223 61.2162 7.31358 61.1303 7.245C60.9124 7.1094 60.6575 7.04544 60.4014 7.06211H59.7449V8.86098H60.2636Z" fill="#00303A"/>
<path d="M63.5542 6.37695H66.6469L66.5596 7.12352H64.4605V8.57026H66.4395V9.27043H64.4605V10.8741H66.6729L66.5964 11.6275H63.5542V6.37695Z" fill="#00303A"/>
<path d="M70.0166 6.37695H70.9242V11.6275H70.0166V6.37695Z" fill="#00303A"/>
<path d="M73.3158 7.13444H71.6875L71.768 6.37695H75.8544L75.7711 7.13444H74.222V11.6275H73.3158V7.13444Z" fill="#00303A"/>
<path d="M79.7876 11.371C79.409 11.1559 79.1026 10.8334 78.9073 10.4442C78.6964 10.013 78.5921 9.53747 78.6029 9.05755C78.591 8.55423 78.7025 8.05564 78.9277 7.60535C79.1369 7.20061 79.4626 6.86783 79.8627 6.64996C80.3063 6.41592 80.8025 6.29939 81.304 6.31148C81.7798 6.299 82.2505 6.41197 82.6688 6.63904C83.0456 6.85299 83.3499 7.17479 83.5423 7.56304C83.7507 7.99165 83.8541 8.4637 83.8439 8.94018C83.8567 9.4493 83.7437 9.95372 83.515 10.4088C83.3057 10.8133 82.9801 11.1461 82.5801 11.3641C82.1412 11.5979 81.6495 11.7145 81.1525 11.7026C80.6763 11.7138 80.2056 11.5994 79.7876 11.371ZM82.1379 10.7268C82.3941 10.5545 82.5932 10.3098 82.7097 10.0239C82.8404 9.69822 82.9045 9.34969 82.8981 8.99886C82.9037 8.65526 82.8468 8.3135 82.7302 7.99024C82.6284 7.70691 82.4427 7.46128 82.1979 7.28598C81.9196 7.10011 81.5892 7.00784 81.2548 7.02256C80.9227 7.01232 80.5956 7.1053 80.3185 7.28871C80.0623 7.4673 79.8624 7.71545 79.7426 8.00389C79.6115 8.31664 79.546 8.65296 79.5501 8.99204C79.5441 9.33998 79.6058 9.68578 79.7316 10.0102C79.8421 10.2972 80.0355 10.5447 80.2871 10.7213C80.5593 10.9027 80.8815 10.9943 81.2084 10.9834C81.5371 10.9939 81.8612 10.9044 82.1379 10.7268Z" fill="#00303A"/>
<path d="M84.8579 6.37617H85.8993L88.4925 10.4448C88.4707 10.0581 88.4597 9.70139 88.4597 9.37474V6.37207H89.3019V11.6267H88.2932L85.6604 7.49261C85.6859 7.96212 85.6991 8.37794 85.7 8.74008V11.6267H84.8579V6.37617Z" fill="#00303A"/>
<path fill-rule="evenodd" clip-rule="evenodd" d="M23.5234 6.33398H13.833C9.26892 6.33398 7.60107 8.00319 7.60107 12.5659V22.2563C7.60107 26.819 9.26892 28.4882 13.833 28.4882H23.5234C28.0861 28.4882 29.758 26.819 29.758 22.2563V12.5659C29.7539 8.00319 28.0861 6.33398 23.5234 6.33398Z" fill="#00303A"/>
<path d="M11.9902 17.4117H12.5784V20.3079H11.9902V19.1314H10.6635V20.3079H10.0767V17.4117H10.6635V18.58H11.9902V17.4117ZM15.3013 19.07C15.3013 19.5409 15.0665 19.792 14.6421 19.792C14.2176 19.792 13.9801 19.534 13.9801 19.0495V17.4117H13.3932V19.0686C13.3932 19.8875 13.845 20.3502 14.6353 20.3502C15.4255 20.3502 15.8882 19.8739 15.8882 19.0441V17.4062H15.3013V19.07ZM22.0914 19.403L21.4349 17.4117H20.9545L20.2966 19.403L19.6538 17.4131H19.0273L20.0373 20.3079H20.5232L21.1824 18.4067L21.8403 20.3079H22.3316L23.3389 17.4131H22.7302L22.0914 19.403ZM24.3953 19.0618H25.464V18.535H24.3953V17.9413H25.9471V17.4144H23.8152V20.3066H25.999V19.7784H24.3953V19.0618ZM26.7032 20.3038H27.2833V17.4117H26.7032V20.3038ZM17.0497 19.7033L16.7876 20.3066H16.1871L17.4632 17.4117H17.9819L19.2525 20.3066H18.637L18.3763 19.7033H17.0497ZM17.268 19.1819H18.1525L17.7062 18.1446L17.268 19.1819Z" fill="white"/>
<path d="M18.6792 13.7251C17.7019 13.7251 16.7646 13.3369 16.0735 12.6458C15.3824 11.9547 14.9941 11.0174 14.9941 10.04H15.5155C15.5068 10.4613 15.5822 10.8801 15.7373 11.2718C15.8925 11.6636 16.1243 12.0204 16.4191 12.3214C16.714 12.6224 17.0659 12.8616 17.4544 13.0249C17.8428 13.1881 18.2599 13.2722 18.6813 13.2722C19.1026 13.2722 19.5198 13.1881 19.9082 13.0249C20.2966 12.8616 20.6486 12.6224 20.9434 12.3214C21.2382 12.0204 21.47 11.6636 21.6252 11.2718C21.7804 10.8801 21.8558 10.4613 21.847 10.04H22.3684C22.3684 10.5243 22.273 11.0038 22.0875 11.4512C21.9021 11.8986 21.6303 12.305 21.2876 12.6472C20.945 12.9895 20.5383 13.2608 20.0907 13.4458C19.6431 13.6307 19.1635 13.7257 18.6792 13.7251Z" fill="white"/>
</g>
<defs>
<clipPath id="clip0_2826_17082">
<rect width="116.065" height="34.82" fill="white"/>
</clipPath>
</defs>
</svg>
