<svg width="118" height="35" viewBox="0 0 118 35" fill="none" xmlns="http://www.w3.org/2000/svg">
<rect x="0.395652" y="0.395652" width="116.717" height="34.0261" rx="3.56087" stroke="#00303A" stroke-width="0.791304"/>
<path d="M59.3082 18.9334C57.2609 18.9334 55.5923 20.4906 55.5923 22.6354C55.5923 24.767 57.2609 26.3373 59.3082 26.3373C61.3563 26.3373 63.0249 24.767 63.0249 22.6354C63.0241 20.4906 61.3554 18.9334 59.3082 18.9334ZM59.3082 24.8802C58.1862 24.8802 57.2191 23.9549 57.2191 22.6362C57.2191 21.3036 58.187 20.3922 59.3082 20.3922C60.4302 20.3922 61.3972 21.3036 61.3972 22.6362C61.3972 23.9541 60.4302 24.8802 59.3082 24.8802ZM51.2009 18.9334C49.1537 18.9334 47.4851 20.4906 47.4851 22.6354C47.4851 24.767 49.1537 26.3373 51.2009 26.3373C53.2491 26.3373 54.9177 24.767 54.9177 22.6354C54.9177 20.4906 53.2491 18.9334 51.2009 18.9334ZM51.2009 24.8802C50.0789 24.8802 49.1119 23.9549 49.1119 22.6362C49.1119 21.3036 50.0798 20.3922 51.2009 20.3922C52.3229 20.3922 53.29 21.3036 53.29 22.6362C53.2909 23.9541 52.3229 24.8802 51.2009 24.8802ZM41.5583 20.0702V21.6404H45.3168C45.2045 22.5239 44.9103 23.1689 44.4612 23.6172C43.9145 24.1638 43.0589 24.767 41.5583 24.767C39.2446 24.767 37.4359 22.9017 37.4359 20.5881C37.4359 18.2745 39.2446 16.4091 41.5583 16.4091C42.8065 16.4091 43.7178 16.9001 44.3907 17.5311L45.4987 16.4231C44.5587 15.5256 43.3113 14.8389 41.5583 14.8389C38.389 14.8389 35.7246 17.4188 35.7246 20.5881C35.7246 23.7573 38.389 26.3373 41.5583 26.3373C43.2687 26.3373 44.5595 25.7759 45.5684 24.7244C46.6059 23.6868 46.9288 22.228 46.9288 21.0503C46.9288 20.6864 46.901 20.3496 46.8444 20.0693H41.5583V20.0702ZM80.9959 21.2897C80.6878 20.4627 79.7477 18.9334 77.8267 18.9334C75.9195 18.9334 74.3345 20.434 74.3345 22.6354C74.3345 24.7105 75.9056 26.3373 78.0086 26.3373C79.7051 26.3373 80.6869 25.2998 81.0943 24.6965L79.8321 23.8548C79.4117 24.472 78.8364 24.8785 78.0086 24.8785C77.1817 24.8785 76.5924 24.4998 76.2138 23.7565L81.1639 21.7092L80.9959 21.2897ZM75.9474 22.5239C75.9056 21.0929 77.0555 20.3644 77.8832 20.3644C78.5282 20.3644 79.0749 20.6873 79.2577 21.1495L75.9474 22.5239ZM71.9234 26.1136H73.5494V15.2323H71.9234V26.1136ZM69.2581 19.7612H69.2024C68.8377 19.326 68.1361 18.9334 67.2535 18.9334C65.4021 18.9334 63.7056 20.5602 63.7056 22.6501C63.7056 24.7253 65.4021 26.3382 67.2535 26.3382C68.137 26.3382 68.8377 25.9456 69.2024 25.4973H69.2581V26.03C69.2581 27.4462 68.5008 28.2035 67.2813 28.2035C66.2856 28.2035 65.6684 27.4889 65.416 26.8857L63.9998 27.475C64.4063 28.4559 65.4856 29.6624 67.2813 29.6624C69.1885 29.6624 70.8014 28.5404 70.8014 25.8055V19.1588H69.259V19.7612H69.2581ZM67.3936 24.8802C66.2717 24.8802 65.3324 23.9401 65.3324 22.6501C65.3324 21.3454 66.2717 20.3922 67.3936 20.3922C68.5008 20.3922 69.3704 21.3454 69.3704 22.6501C69.3704 23.9401 68.5008 24.8802 67.3936 24.8802ZM88.6157 15.2323H84.724V26.1136H86.3474V21.9912H88.6148C90.4149 21.9912 92.1854 20.6882 92.1854 18.6122C92.1854 16.5362 90.4158 15.2323 88.6157 15.2323ZM88.6575 20.4767H86.3474V16.7469H88.6575C89.8717 16.7469 90.5611 17.7522 90.5611 18.6122C90.5611 19.4548 89.8717 20.4767 88.6575 20.4767ZM98.6953 18.9142C97.5194 18.9142 96.3016 19.4322 95.7977 20.5803L97.2391 21.1817C97.5472 20.5803 98.1217 20.3835 98.7232 20.3835C99.5632 20.3835 100.417 20.8875 100.431 21.7832V21.8955C100.137 21.7275 99.5066 21.4759 98.7371 21.4759C97.1834 21.4759 95.6009 22.3298 95.6009 23.9253C95.6009 25.3816 96.8753 26.319 98.3028 26.319C99.3943 26.319 99.9966 25.829 100.374 25.2545H100.43V26.0945H101.999V21.9225C102 19.9918 100.556 18.9142 98.6953 18.9142ZM98.4986 24.8776C97.9677 24.8776 97.2252 24.6112 97.2252 23.9532C97.2252 23.1132 98.1496 22.7912 98.9478 22.7912C99.6607 22.7912 99.9975 22.9452 100.431 23.155C100.305 24.1638 99.437 24.8776 98.4986 24.8776ZM107.71 19.1519L105.849 23.8696H105.793L103.861 19.1519H102.111L105.009 25.7454L103.357 29.4134H105.05L109.517 19.1519H107.71ZM93.0819 26.1136H94.7053V15.2323H93.0819V26.1136Z" fill="#00303A"/>
<path d="M41.2742 8.91587C41.2742 9.6453 41.0583 10.2259 40.6257 10.6594C40.1348 11.1747 39.4942 11.4323 38.7073 11.4323C37.9535 11.4323 37.312 11.1712 36.7854 10.6489C36.2579 10.1258 35.9941 9.47817 35.9941 8.70523C35.9941 7.93141 36.2579 7.28381 36.7854 6.76155C37.312 6.23842 37.9535 5.97729 38.7073 5.97729C39.0816 5.97729 39.4393 6.0504 39.7788 6.19577C40.1191 6.342 40.3916 6.53611 40.5953 6.77896L40.1365 7.23855C39.791 6.82509 39.3148 6.6188 38.7064 6.6188C38.1563 6.6188 37.681 6.81203 37.2798 7.19851C36.8785 7.58498 36.6783 8.08722 36.6783 8.70436C36.6783 9.3215 36.8785 9.82374 37.2798 10.2102C37.681 10.5967 38.1563 10.7899 38.7064 10.7899C39.2896 10.7899 39.7762 10.5958 40.1653 10.2067C40.4177 9.95343 40.5639 9.60091 40.6031 9.14915H38.7064V8.52157H41.2368C41.2629 8.65823 41.2742 8.78966 41.2742 8.91587Z" fill="#00303A"/>
<path d="M45.287 6.73461H42.909V8.39018H45.0537V9.01776H42.909V10.6733H45.287V11.3157H42.2379V6.0931H45.287V6.73461Z" fill="#00303A"/>
<path d="M48.1167 11.3157H47.4456V6.73461H45.9867V6.0931H49.5755V6.73461H48.1167V11.3157Z" fill="#00303A"/>
<path d="M52.172 11.3157V6.0931H52.8431V11.3157H52.172Z" fill="#00303A"/>
<path d="M55.8192 11.3157H55.1481V6.73461H53.6893V6.0931H57.2781V6.73461H55.8192V11.3157Z" fill="#00303A"/>
<path d="M64.0716 10.6411C63.5581 11.1686 62.9201 11.4323 62.1567 11.4323C61.3933 11.4323 60.7553 11.1686 60.2426 10.6411C59.729 10.1136 59.4731 9.46777 59.4731 8.7044C59.4731 7.94103 59.729 7.29516 60.2426 6.76768C60.7553 6.2402 61.3933 5.97559 62.1567 5.97559C62.9157 5.97559 63.5529 6.24107 64.0682 6.77116C64.5835 7.30126 64.8411 7.94538 64.8411 8.7044C64.8411 9.46777 64.5843 10.1136 64.0716 10.6411ZM60.7379 10.2033C61.1244 10.595 61.597 10.79 62.1567 10.79C62.7164 10.79 63.1899 10.5941 63.5755 10.2033C63.962 9.81159 64.1561 9.31196 64.1561 8.7044C64.1561 8.09684 63.962 7.59721 63.5755 7.20551C63.1899 6.81381 62.7164 6.61884 62.1567 6.61884C61.597 6.61884 61.1244 6.81469 60.7379 7.20551C60.3523 7.59721 60.1582 8.09684 60.1582 8.7044C60.1582 9.31196 60.3523 9.81159 60.7379 10.2033Z" fill="#00303A"/>
<path d="M65.7829 11.3157V6.0931H66.5994L69.1376 10.1554H69.1663L69.1376 9.1492V6.0931H69.8087V11.3157H69.108L66.4523 7.0558H66.4236L66.4523 8.06203V11.3157H65.7829Z" fill="#00303A"/>
<path d="M41.2742 8.91587C41.2742 9.6453 41.0583 10.2259 40.6257 10.6594C40.1348 11.1747 39.4942 11.4323 38.7073 11.4323C37.9535 11.4323 37.312 11.1712 36.7854 10.6489C36.2579 10.1258 35.9941 9.47817 35.9941 8.70523C35.9941 7.93141 36.2579 7.28381 36.7854 6.76155C37.312 6.23842 37.9535 5.97729 38.7073 5.97729C39.0816 5.97729 39.4393 6.0504 39.7788 6.19577C40.1191 6.342 40.3916 6.53611 40.5953 6.77896L40.1365 7.23855C39.791 6.82509 39.3148 6.6188 38.7064 6.6188C38.1563 6.6188 37.681 6.81203 37.2798 7.19851C36.8785 7.58498 36.6783 8.08722 36.6783 8.70436C36.6783 9.3215 36.8785 9.82374 37.2798 10.2102C37.681 10.5967 38.1563 10.7899 38.7064 10.7899C39.2896 10.7899 39.7762 10.5958 40.1653 10.2067C40.4177 9.95343 40.5639 9.60091 40.6031 9.14915H38.7064V8.52157H41.2368C41.2629 8.65823 41.2742 8.78966 41.2742 8.91587Z" stroke="#00303A" stroke-width="0.158261" stroke-miterlimit="10"/>
<path d="M45.287 6.73461H42.909V8.39018H45.0537V9.01776H42.909V10.6733H45.287V11.3157H42.2379V6.0931H45.287V6.73461Z" stroke="#00303A" stroke-width="0.158261" stroke-miterlimit="10"/>
<path d="M48.1167 11.3157H47.4456V6.73461H45.9867V6.0931H49.5755V6.73461H48.1167V11.3157Z" stroke="#00303A" stroke-width="0.158261" stroke-miterlimit="10"/>
<path d="M52.172 11.3157V6.0931H52.8431V11.3157H52.172Z" stroke="#00303A" stroke-width="0.158261" stroke-miterlimit="10"/>
<path d="M55.8192 11.3157H55.1481V6.73461H53.6893V6.0931H57.2781V6.73461H55.8192V11.3157Z" stroke="#00303A" stroke-width="0.158261" stroke-miterlimit="10"/>
<path d="M64.0716 10.6411C63.5581 11.1686 62.9201 11.4323 62.1567 11.4323C61.3933 11.4323 60.7553 11.1686 60.2426 10.6411C59.729 10.1136 59.4731 9.46777 59.4731 8.7044C59.4731 7.94103 59.729 7.29516 60.2426 6.76768C60.7553 6.2402 61.3933 5.97559 62.1567 5.97559C62.9157 5.97559 63.5529 6.24107 64.0682 6.77116C64.5835 7.30126 64.8411 7.94538 64.8411 8.7044C64.8411 9.46777 64.5843 10.1136 64.0716 10.6411ZM60.7379 10.2033C61.1244 10.595 61.597 10.79 62.1567 10.79C62.7164 10.79 63.1899 10.5941 63.5755 10.2033C63.962 9.81159 64.1561 9.31196 64.1561 8.7044C64.1561 8.09684 63.962 7.59721 63.5755 7.20551C63.1899 6.81381 62.7164 6.61884 62.1567 6.61884C61.597 6.61884 61.1244 6.81469 60.7379 7.20551C60.3523 7.59721 60.1582 8.09684 60.1582 8.7044C60.1582 9.31196 60.3523 9.81159 60.7379 10.2033Z" stroke="#00303A" stroke-width="0.158261" stroke-miterlimit="10"/>
<path d="M65.7829 11.3157V6.0931H66.5994L69.1376 10.1554H69.1663L69.1376 9.1492V6.0931H69.8087V11.3157H69.108L66.4523 7.0558H66.4236L66.4523 8.06203V11.3157H65.7829Z" stroke="#00303A" stroke-width="0.158261" stroke-miterlimit="10"/>
<path d="M23.25 21.2881L10.8926 28.3125C10.3221 28.636 9.80111 28.6796 9.4082 28.4932L19.9307 17.9688L23.25 21.2881ZM19.3711 17.4082L8.8584 27.9229C8.74465 27.6835 8.68066 27.3858 8.68066 27.0352V7.78418C8.68072 7.43365 8.7443 7.13516 8.8584 6.89551L19.3711 17.4082ZM27.8672 16.1543C29.0826 16.8454 29.0828 17.9761 27.8672 18.668L23.9648 20.8838L20.4902 17.4092L23.9629 13.9355L27.8672 16.1543ZM9.40625 6.32617C9.7993 6.13891 10.3216 6.18431 10.8926 6.50879L23.249 13.5293L19.9297 16.8496L9.40625 6.32617Z" fill="#00303A"/>
</svg>
