<?xml version="1.0" encoding="utf-8"?>
<!-- Generator: Adobe Illustrator 21.1.0, SVG Export Plug-In . SVG Version: 6.00 Build 0)  -->
<svg version="1.1" id="Layer_1" xmlns="http://www.w3.org/2000/svg" xmlns:xlink="http://www.w3.org/1999/xlink" x="0px" y="0px"
	 viewBox="0 0 171.3 142.9" style="enable-background:new 0 0 171.3 142.9;" xml:space="preserve">
<style type="text/css">
	.st0{clip-path:url(#SVGID_2_);fill:#DD2227;}
	.st1{clip-path:url(#SVGID_2_);fill:#FFFFFF;}
	.st2{clip-path:url(#SVGID_2_);fill:#1E396C;}
</style>
<g>
	<defs>
		<rect id="SVGID_1_" width="171.3" height="142.9"/>
	</defs>
	<clipPath id="SVGID_2_">
		<use xlink:href="#SVGID_1_"  style="overflow:visible;"/>
	</clipPath>
	<path class="st0" d="M125,105.3c-6.3,2.7-13.3,4.7-20.7,5.9c-34.5,5.6-65.3-8.6-68.8-31.7c-2.4-15.9,8.7-31.9,27.2-42.1
		C39.5,47,24.6,65.2,27.3,83.3c3.5,23.1,34.3,37.3,68.8,31.8C106.9,113.3,116.7,109.9,125,105.3"/>
	<path class="st1" d="M146.6,62.8c-2.6-21.2-28.8-34.9-58.4-30.7C58.6,36.3,36.7,56.8,39.4,78c2.6,21.1,28.8,34.9,58.4,30.7
		C127.4,104.5,149.2,83.9,146.6,62.8"/>
	<path class="st0" d="M146.6,62.8c-2.6-21.2-28.8-34.9-58.4-30.7C58.6,36.3,36.7,56.8,39.4,78c2.6,21.1,28.8,34.9,58.4,30.7
		C127.4,104.5,149.2,83.9,146.6,62.8 M134.9,60.5c0.1,0.4-0.2,0.9-0.7,0.9l-5.6,0.8c-0.4,0-0.8-0.3-0.9-0.7
		c-0.1-0.4,0.2-0.9,0.7-0.9l5.5-0.8C134.4,59.7,134.8,60.1,134.9,60.5 M135,67.6c-0.1,0.4-0.5,0.8-1,0.7l-6-0.7
		c-0.5,0-0.8-0.5-0.8-0.9c0.1-0.4,0.5-0.8,0.9-0.7l6,0.7C134.7,66.7,135.1,67.1,135,67.6 M132.9,53.7c0.2,0.4,0,0.9-0.4,1.1
		l-5.1,2.2c-0.4,0.2-0.9,0-1-0.4c-0.2-0.4,0-0.9,0.4-1.1l5.1-2.2C132.3,53.1,132.8,53.3,132.9,53.7 M129.3,47.6
		c0.3,0.4,0.2,0.9-0.1,1.1l-4.4,3.5c-0.3,0.3-0.9,0.2-1.1-0.1c-0.3-0.4-0.2-0.8,0.1-1.2l4.4-3.5C128.5,47.2,129,47.2,129.3,47.6
		 M119.8,47.3l3.3-4.5c0.3-0.3,0.8-0.4,1.1-0.2c0.4,0.3,0.5,0.8,0.2,1.2l-3.3,4.5c-0.2,0.3-0.7,0.4-1.1,0.1
		C119.6,48.2,119.6,47.7,119.8,47.3 M115,44.8l2-5.2c0.2-0.4,0.6-0.6,1.1-0.4c0.4,0.2,0.6,0.6,0.5,1.1l-2.1,5.2
		c-0.2,0.4-0.6,0.6-1,0.5C115.1,45.7,114.9,45.3,115,44.8 M109.8,43.7l0.6-5.6c0-0.4,0.4-0.8,0.9-0.7c0.5,0.1,0.8,0.5,0.7,0.9
		l-0.6,5.6c0,0.5-0.4,0.8-0.9,0.7C110.1,44.6,109.7,44.2,109.8,43.7 M104.3,37.5c0.5-0.1,0.9,0.2,0.9,0.7l0.9,5.6
		c0.1,0.4-0.2,0.9-0.7,0.9c-0.4,0.1-0.9-0.2-0.9-0.7l-0.8-5.6C103.5,37.9,103.8,37.5,104.3,37.5 M97.6,39.3c0.4-0.2,0.9,0,1.1,0.4
		l2.3,5.2c0.2,0.4,0,0.9-0.4,1.1c-0.4,0.2-0.9,0-1.1-0.4l-2.3-5.2C97,40,97.1,39.5,97.6,39.3 M91.5,42.9c0.3-0.3,0.8-0.2,1.1,0.1
		l3.5,4.4c0.3,0.4,0.2,0.9-0.1,1.2c-0.3,0.3-0.9,0.2-1.1-0.2l-3.5-4.4C91.1,43.7,91.2,43.2,91.5,42.9 M86.7,48
		c0.3-0.4,0.8-0.5,1.2-0.2l4.5,3.4c0.3,0.3,0.4,0.8,0.2,1.1c-0.3,0.4-0.8,0.5-1.1,0.2l-4.5-3.4C86.5,48.8,86.4,48.3,86.7,48
		 M83.2,54.2c0.2-0.4,0.6-0.6,1.1-0.5l7.2,2.9c4-8.9,14.3-13.1,23.4-9.4c9.2,3.7,13.8,13.9,10.8,23.2l7.2,2.9c0.4,0.2,0.6,0.6,0.4,1
		c-0.1,0.4-0.5,0.6-0.9,0.5L123,71c0.1-0.2,0.2-0.4,0.2-0.6c3.2-8.3-0.8-17.7-9.1-21.1c-8.3-3.3-17.6,0.7-20.8,9
		c-0.1,0.2-0.1,0.4-0.2,0.6l-9.5-3.8C83.2,54.9,83.1,54.5,83.2,54.2 M51.1,82.5c3.2,0,9.5,0.2,14.4,1.1v1.8c-5-0.9-11.2-1-14.4-1.1
		V82.5z M111,101.2c0,0-0.6,0-1.6,0v-2.7c6.4,0.1,12.5,0,15.7-0.1c-1.6,1-3.2,1.9-4.9,2.8L111,101.2z M108.2,103.8
		c-2.2,0-5.6-0.1-9.8-1c-4-0.8-9.9-2.7-15.4-4.7v-1.7c5.4,2,11.2,3.7,15.3,4.6c2.6,0.6,6.3,1,9.9,1.2V103.8z M55.8,90.2
		c-1.5-0.6-2.9-1.2-4.1-1.9c3.6,0.1,9.3,0.3,13.8,1.1v1.8C62.4,90.6,58.9,90.3,55.8,90.2 M66.7,86.4c1.8,0.4,3.4,0.9,4.4,1.5
		c2.3,1.4,6.3,3.1,10.6,4.8v2.4c-4.3-1.6-8.1-3.3-10.4-4.7c-1.1-0.7-2.7-1.2-4.6-1.6V86.4L66.7,86.4z M92.8,96.3
		c1.8,0.5,3.5,1,4.9,1.2c2.6,0.6,6.5,1,10.4,1.1v2.7c-2.2,0-5.6-0.2-9.8-1.1c-4-0.8-9.9-2.7-15.4-4.6v-2.5c0.8,0.3,1.5,0.5,2.3,0.8
		v2.4H92.8z M66.7,89.6c1.7,0.4,3.2,0.9,4.2,1.5c2.4,1.4,6.4,3.2,10.8,4.8v1.8c-1-0.4-2-0.7-2.9-1.1c-1.8-1-4.3-2.3-6.7-3.1
		c0,0,0,0,0,0c-0.3-0.2-0.5-0.3-0.7-0.4c-1.1-0.7-2.7-1.2-4.6-1.6V89.6z M110.2,97.8c0,0-0.3-0.1-0.8,0V96c8,0.3,16.5,0,19.3,0
		c-0.8,0.6-1.5,1.1-2.4,1.7L110.2,97.8z M108.2,97.8c-2.1,0-5.7-0.1-10.3-1.1c-1.3-0.3-2.7-0.6-4.3-1.1v-1.7c1.5,0.4,2.9,0.8,4.2,1
		c2.4,0.5,6.3,0.9,10.4,1.1V97.8z M85.3,93.1c-0.8-0.3-1.5-0.5-2.3-0.8v-1.7c0.8,0.3,1.5,0.5,2.3,0.8V93.1z M81.7,91.8
		c-4.2-1.6-8-3.2-10.2-4.6c-1.2-0.7-2.8-1.3-4.8-1.7v-1.8c1.8,0.4,3.4,0.9,4.4,1.6c2.3,1.4,6.3,3.1,10.6,4.7V91.8z M65.5,86.1v2.4
		c-4.9-0.9-10.9-1.1-14.4-1.1v-2.3C54.3,85.1,60.5,85.2,65.5,86.1 M65.5,93c0,0-3.2-0.6-6.8-1.8c2.3,0.2,4.7,0.4,6.8,0.8V93z
		 M68.6,92.8c-0.7-0.1-1.3,0-2,0.1l0-0.6C67.4,92.4,68,92.6,68.6,92.8 M108.2,105.9c-1,0.3-2,0.6-3,0.8c-1.2-0.6-2.7-1.3-4.5-1.8
		c-4.9-1.4-15.7-3.3-17.7-5.8v0c5.4,2,11.2,3.7,15.3,4.6c2.9,0.6,6.5,0.9,9.9,1.1V105.9z M109.4,105.6v-0.8c0.7,0,1.5,0,2.2,0.1
		c0,0,0,0,0,0C110.9,105.1,110.1,105.3,109.4,105.6 M114.1,103.9L114.1,103.9l-3.1-0.1c0,0-0.6,0-1.6,0v-1.8
		c3.2,0.1,6.6,0.1,8.9,0.1l0,0C117,102.8,115.6,103.3,114.1,103.9 M143.7,77.9l-32.5,0l5.3,5.5l24.3-0.1c-2.2,3.5-5.1,6.8-8.5,9.8
		c-0.9,0.8-1.7,1.5-2.7,2.2l-19.5,0c0,0-0.3,0-0.8,0.1v-1.4h-1.2v1.4c-2.1,0-5.7-0.1-10.3-1.1c-1.3-0.3-2.7-0.7-4.3-1.1V82.6h-8.3
		v7.9c-0.8-0.3-1.5-0.5-2.3-0.8V88h-1.3v1.3c-4.2-1.6-8-3.2-10.2-4.6c-1.2-0.7-2.8-1.3-4.8-1.7v-1.2h-1.2v0.9
		c-5-0.9-11.2-1-14.4-1.1v-1.2l-1.4,0v1.1c-0.4,0-0.7,0-0.7,0v0.8h0.7v1.8c-0.4,0-0.7,0-0.7,0v0.8h0.7l0,2.3h0h0
		c-0.4-0.3-3.7-2.5-5.8-2.6V72.4L42,72.6l3.5-9.7l22.6,0L80.9,63l1.2,2.8L84,63l11.9,0.2l13.7,10.6l0,4.2l0.5-0.8H134l10,0
		C143.8,77.4,143.8,77.7,143.7,77.9"/>
	<polygon class="st0" points="84.8,63.9 81.9,66.9 80.3,63.6 46.3,63.6 51.7,74.6 84.1,74.6 84.1,74.2 94.4,65.4 106.4,75.3 
		108.3,74.6 94.5,63.9 	"/>
	<polygon class="st0" points="56.6,80.2 61.8,80.2 61.8,77.6 56.7,77.6 	"/>
	<polygon class="st0" points="74.7,80.2 79.9,80.2 79.9,77.6 74.7,77.6 	"/>
	<polygon class="st0" points="120.1,89.6 123.1,89.6 123.1,86.9 118.3,86.9 118.3,89.6 118.9,89.6 	"/>
	<polygon class="st0" points="132.4,89.6 133.1,89.6 133.1,86.9 128.4,86.9 128.4,89.6 129.3,89.6 	"/>
	<path class="st2" d="M25,20.2h-6.4c-1.7,3.3-4.9,5.2-8.6,5.2c-5.5,0-9.9-4.6-9.9-10.7V6h4.4v8.3c0,4.1,2.1,7,5.5,7
		c3.4,0,5.5-2.9,5.5-7V6h4.4v10H25V20.2z M12.2,3.6H8.3V0h3.9V3.6z"/>
	<path class="st2" d="M27.2,25.4h-3.9v-3.6h3.9V25.4z M38.1,20.2H24V16h2.9c1.5,0,2.2-1,2.2-3V6h4.4v6.8c0,1.2-0.2,2.2-0.5,3.2h5.1
		V20.2z M33.1,25.4h-3.9v-3.6h3.9V25.4z"/>
	<path class="st2" d="M64,20.2h-8.1c-1.8,0-3.5-0.7-4.9-2.2c-0.8,0.6-1.7,1.2-2.9,1.6c-1.3,0.4-2.6,0.6-3.9,0.6h-6.9V16h6.8
		c1.5,0,2.9-0.3,4.1-1.1c-0.5-0.7-1.3-1.3-2.4-2c-1.3-0.8-2.6-1.3-3.8-1.6V7.8c2.8-1.7,5.8-2.5,8.7-2.5c3.5,0,6.7,1.2,9.7,3.4
		c-0.3,0.9-1.1,2-2.3,3.3c-1.3,1.5-2.5,2.5-3.6,3.2c0.6,0.5,1.3,0.8,2.4,0.8H64V20.2z M54.9,9.9c-1.4-0.7-2.7-1-4-1
		c-1.2,0-2.5,0.3-3.7,0.9c0.9,0.4,1.7,0.9,2.3,1.3c0.6,0.4,1.2,1,1.9,1.9c0.6-0.3,1.3-0.8,2.1-1.4C54.2,10.8,54.7,10.3,54.9,9.9"/>
	<path class="st2" d="M72.1,14.2c0,1.7-0.5,3-1.4,4.1c-1,1.3-2.5,1.9-4.3,1.9h-4.1V16h3.2c1.5,0,2.2-1,2.2-3.1V0h4.4V14.2z"/>
	<rect x="75.4" class="st2" width="4.4" height="20.2"/>
	<path class="st2" d="M106,14.3h-8.7c-3.1,0-4.5,1-4.5,3.4c0,2.3,1.5,3.4,4.5,3.4h6v4.3h-5.8c-5.7,0-9-2.8-9-7.7
		c0-3.5,1.9-6.2,5.2-7.2c-0.5-1-0.7-2.7-0.7-3.7c0-3.7,3-6.8,6.8-6.8c2.6,0,4.8,1.4,5.9,3.8l-3.5,1.6c-0.4-1.2-1.2-1.8-2.4-1.8
		c-1.5,0-2.6,1.4-2.6,3.3c0,1.5,0.6,2.6,1.8,3.1h7V14.3z"/>
	<path class="st2" d="M117.4,17.3c0,2.9-0.7,5-2.2,6.2c-1.3,1.2-3.5,1.8-6.5,1.8v-3.5c2.9,0,4.3-1.4,4.3-4.1V6h4.4V17.3z"/>
	<rect x="120.6" class="st2" width="4.4" height="20.2"/>
	<path class="st2" d="M141.4,20.2h-4.9c-0.7,3.4-3.5,5.2-8.5,5.2v-3.5c2.9,0,4.3-1.4,4.3-4.1V6h4.4v10h4.6V20.2z M136.5,3.6h-3.9V0
		h3.9V3.6z"/>
	<rect x="140.5" y="16" class="st2" width="6.7" height="4.2"/>
	<rect x="146.7" y="16" class="st2" width="6.7" height="4.2"/>
	<path class="st2" d="M171.3,15.8c0,4.2-2.8,7.1-7.2,7.1c-2.7,0-4.7-0.9-6-2.7h-5.6V16h4.3c0-4.5,2.6-7.3,7.1-7.3
		C168.5,8.7,171.3,11.5,171.3,15.8 M167,15.9c0-2.5-0.9-3.7-2.8-3.7h-0.3c-1.6,0-2.7,1.5-2.7,3.5c0,2.1,1.1,3.6,2.9,3.6
		C165.9,19.4,167,18,167,15.9"/>
	<path class="st2" d="M15.6,140l-1.1-2.8H5.6l-1.1,2.8c-0.4,1.1-0.8,1.8-1.1,2.2c-0.3,0.4-0.8,0.6-1.4,0.6c-0.6,0-1.1-0.2-1.5-0.6
		c-0.4-0.4-0.6-0.9-0.6-1.4c0-0.3,0-0.6,0.1-0.9c0.1-0.3,0.3-0.8,0.5-1.3l5.6-14.3c0.1-0.4,0.3-0.9,0.6-1.5c0.2-0.6,0.5-1.1,0.7-1.4
		c0.3-0.4,0.6-0.7,1-0.9c0.4-0.2,0.9-0.4,1.5-0.4c0.6,0,1.1,0.1,1.6,0.4c0.4,0.2,0.7,0.5,1,0.9c0.3,0.4,0.5,0.8,0.7,1.2
		c0.2,0.4,0.4,1,0.7,1.7l5.7,14.2c0.4,1.1,0.7,1.9,0.7,2.3c0,0.5-0.2,1-0.6,1.4c-0.4,0.4-0.9,0.6-1.5,0.6c-0.4,0-0.7-0.1-0.9-0.2
		c-0.2-0.1-0.5-0.3-0.6-0.5c-0.2-0.2-0.4-0.5-0.5-1C15.9,140.8,15.7,140.4,15.6,140 M6.8,133.9h6.5l-3.3-9.1L6.8,133.9z"/>
	<path class="st2" d="M22,140.4v-17.7c0-0.8,0.2-1.4,0.6-1.9c0.4-0.4,0.9-0.6,1.5-0.6c0.6,0,1.1,0.2,1.5,0.6c0.4,0.4,0.6,1,0.6,1.9
		v17.7c0,0.8-0.2,1.4-0.6,1.9c-0.4,0.4-0.9,0.6-1.5,0.6c-0.6,0-1.1-0.2-1.4-0.6C22.2,141.8,22,141.2,22,140.4"/>
	<path class="st2" d="M49.8,140l-1.1-2.8h-8.9l-1,2.8c-0.4,1.1-0.8,1.8-1.1,2.2c-0.3,0.4-0.8,0.6-1.4,0.6c-0.6,0-1.1-0.2-1.5-0.6
		c-0.4-0.4-0.6-0.9-0.6-1.4c0-0.3,0.1-0.6,0.2-0.9c0.1-0.3,0.2-0.8,0.5-1.3l5.6-14.3c0.1-0.4,0.3-0.9,0.6-1.5
		c0.2-0.6,0.5-1.1,0.7-1.4c0.2-0.4,0.6-0.7,1-0.9c0.4-0.2,0.9-0.4,1.5-0.4c0.6,0,1.1,0.1,1.5,0.4c0.4,0.2,0.8,0.5,1,0.9
		c0.3,0.4,0.5,0.8,0.6,1.2c0.2,0.4,0.4,1,0.7,1.7l5.7,14.2c0.5,1.1,0.7,1.9,0.7,2.3c0,0.5-0.2,1-0.6,1.4c-0.4,0.4-0.9,0.6-1.5,0.6
		c-0.4,0-0.7-0.1-0.9-0.2c-0.2-0.1-0.4-0.3-0.6-0.5c-0.2-0.2-0.4-0.5-0.6-1C50.1,140.8,49.9,140.4,49.8,140 M40.9,133.9h6.5
		l-3.3-9.1L40.9,133.9z"/>
	<path class="st2" d="M58.2,124.3c-0.6,0-1.1-0.2-1.4-0.5c-0.4-0.3-0.6-0.8-0.6-1.5c0-0.6,0.2-1.1,0.6-1.4c0.4-0.4,0.9-0.6,1.4-0.6
		c0.5,0,1,0.2,1.4,0.5c0.4,0.3,0.6,0.8,0.6,1.5c0,0.6-0.2,1.1-0.6,1.5C59.3,124.2,58.8,124.3,58.2,124.3 M60.3,128.6v11.8
		c0,0.8-0.2,1.4-0.6,1.9c-0.4,0.4-0.9,0.6-1.5,0.6c-0.6,0-1.1-0.2-1.4-0.6c-0.4-0.4-0.6-1-0.6-1.8v-11.7c0-0.8,0.2-1.4,0.6-1.8
		c0.4-0.4,0.9-0.6,1.4-0.6c0.6,0,1.1,0.2,1.5,0.6C60.1,127.3,60.3,127.8,60.3,128.6"/>
	<path class="st2" d="M66.9,128.5v0.5c0.7-0.9,1.5-1.6,2.4-2.1c0.8-0.4,1.8-0.7,2.9-0.7c1.1,0,2,0.2,2.9,0.7c0.9,0.5,1.5,1.1,1.9,2
		c0.3,0.5,0.4,1,0.5,1.6c0.1,0.6,0.1,1.3,0.1,2.2v7.6c0,0.8-0.2,1.4-0.6,1.9c-0.4,0.4-0.9,0.6-1.5,0.6c-0.6,0-1.1-0.2-1.5-0.6
		c-0.4-0.4-0.6-1-0.6-1.8v-6.8c0-1.3-0.2-2.4-0.6-3.1c-0.4-0.7-1.1-1.1-2.2-1.1c-0.7,0-1.4,0.2-2,0.6c-0.6,0.4-1,1-1.3,1.8
		c-0.2,0.6-0.3,1.7-0.3,3.4v5.1c0,0.8-0.2,1.4-0.6,1.9c-0.4,0.4-0.9,0.6-1.5,0.6c-0.6,0-1.1-0.2-1.4-0.6c-0.4-0.4-0.6-1-0.6-1.8
		v-11.8c0-0.8,0.2-1.4,0.5-1.7c0.3-0.4,0.8-0.6,1.4-0.6c0.4,0,0.7,0.1,1,0.3c0.3,0.2,0.5,0.4,0.7,0.8
		C66.8,127.6,66.9,128,66.9,128.5"/>
	<path class="st2" d="M100.2,124h-8.8v5.6h7.3c0.7,0,1.2,0.2,1.5,0.5c0.3,0.3,0.5,0.7,0.5,1.2c0,0.5-0.2,0.9-0.5,1.2
		c-0.3,0.3-0.8,0.4-1.5,0.4h-7.3v7.2c0,0.9-0.2,1.6-0.6,2c-0.4,0.4-1,0.7-1.6,0.7c-0.7,0-1.2-0.2-1.6-0.7c-0.4-0.5-0.6-1.1-0.6-2
		v-16.9c0-0.6,0.1-1.2,0.3-1.6c0.2-0.4,0.5-0.7,0.9-0.9c0.4-0.2,0.9-0.3,1.5-0.3h10.5c0.7,0,1.2,0.2,1.6,0.5
		c0.3,0.3,0.5,0.7,0.5,1.2c0,0.5-0.2,0.9-0.5,1.3C101.4,123.8,100.9,124,100.2,124"/>
	<path class="st2" d="M113.6,140.6c-1,0.8-1.9,1.3-2.9,1.7c-0.9,0.4-2,0.6-3.1,0.6c-1.1,0-2-0.2-2.8-0.6c-0.8-0.4-1.4-1-1.8-1.7
		c-0.4-0.7-0.6-1.5-0.6-2.3c0-1.1,0.3-2.1,1.1-2.9c0.7-0.8,1.7-1.3,2.9-1.6c0.2-0.1,0.9-0.2,1.9-0.4c1-0.2,1.9-0.4,2.6-0.6
		c0.7-0.2,1.5-0.4,2.4-0.6c0-1.1-0.3-1.9-0.7-2.4c-0.4-0.5-1.2-0.8-2.4-0.8c-1,0-1.8,0.1-2.3,0.4c-0.5,0.3-1,0.7-1.3,1.3
		c-0.4,0.6-0.6,1-0.8,1.1c-0.2,0.2-0.5,0.3-1,0.3c-0.4,0-0.9-0.1-1.2-0.4c-0.3-0.3-0.5-0.7-0.5-1.1c0-0.7,0.2-1.4,0.8-2.1
		c0.5-0.7,1.3-1.2,2.4-1.7c1.1-0.4,2.4-0.7,4-0.7c1.8,0,3.2,0.2,4.2,0.6c1,0.4,1.8,1.1,2.2,2c0.4,0.9,0.6,2.1,0.6,3.7v2.4
		c0,0.7,0,1.4,0,2.2c0,0.8,0.1,1.6,0.4,2.4c0.2,0.8,0.4,1.4,0.4,1.6c0,0.4-0.2,0.8-0.6,1.1c-0.4,0.3-0.8,0.5-1.3,0.5
		c-0.4,0-0.8-0.2-1.2-0.6C114.5,141.9,114,141.3,113.6,140.6 M113.3,134.7c-0.6,0.2-1.5,0.5-2.6,0.7c-1.2,0.2-1.9,0.4-2.4,0.5
		c-0.4,0.1-0.9,0.3-1.3,0.7c-0.4,0.3-0.6,0.8-0.6,1.4c0,0.6,0.2,1.1,0.7,1.6c0.5,0.4,1.1,0.6,1.8,0.6c0.8,0,1.5-0.2,2.2-0.5
		c0.7-0.4,1.2-0.8,1.5-1.4c0.4-0.6,0.5-1.6,0.5-3.1V134.7z"/>
	<path class="st2" d="M124.2,137v3.4c0,0.8-0.2,1.4-0.6,1.9c-0.4,0.4-0.9,0.6-1.5,0.6c-0.6,0-1.1-0.2-1.4-0.6
		c-0.4-0.4-0.6-1-0.6-1.9V129c0-1.8,0.7-2.8,2-2.8c0.7,0,1.2,0.2,1.5,0.7c0.3,0.4,0.5,1.1,0.5,1.9c0.5-0.8,1-1.5,1.5-1.9
		c0.5-0.4,1.2-0.7,2.1-0.7c0.9,0,1.7,0.2,2.5,0.7c0.8,0.4,1.2,1,1.2,1.7c0,0.5-0.2,0.9-0.5,1.2c-0.3,0.3-0.7,0.5-1.1,0.5
		c-0.1,0-0.5-0.1-1.1-0.3c-0.6-0.2-1.1-0.3-1.5-0.3c-0.6,0-1.1,0.2-1.5,0.5c-0.4,0.3-0.7,0.8-0.9,1.4c-0.2,0.6-0.4,1.4-0.4,2.2
		C124.3,134.7,124.2,135.7,124.2,137"/>
	<path class="st2" d="M145.9,134.9v5.4c0,0.9-0.2,1.5-0.6,1.9c-0.4,0.4-0.9,0.6-1.5,0.6c-0.6,0-1.1-0.2-1.5-0.6
		c-0.4-0.4-0.6-1.1-0.6-1.9v-6.5c0-1,0-1.8-0.1-2.4c-0.1-0.6-0.3-1-0.6-1.4c-0.3-0.4-0.8-0.5-1.5-0.5c-1.3,0-2.2,0.5-2.6,1.4
		c-0.4,0.9-0.6,2.2-0.6,4v5.5c0,0.8-0.2,1.5-0.6,1.9c-0.4,0.4-0.9,0.7-1.5,0.7c-0.6,0-1.1-0.2-1.5-0.7c-0.4-0.4-0.6-1.1-0.6-1.9
		v-11.7c0-0.8,0.2-1.4,0.5-1.8c0.3-0.4,0.8-0.6,1.4-0.6c0.6,0,1,0.2,1.4,0.6c0.4,0.4,0.6,0.9,0.6,1.6v0.4c0.7-0.8,1.5-1.5,2.3-1.9
		c0.8-0.4,1.7-0.6,2.7-0.6c1,0,1.9,0.2,2.6,0.6c0.7,0.4,1.3,1,1.8,1.9c0.7-0.8,1.4-1.5,2.2-1.9c0.8-0.4,1.6-0.6,2.6-0.6
		c1.1,0,2.1,0.2,2.9,0.7c0.8,0.4,1.4,1.1,1.8,1.9c0.4,0.7,0.5,1.9,0.5,3.5v8c0,0.9-0.2,1.5-0.6,1.9c-0.4,0.4-0.9,0.6-1.5,0.6
		c-0.6,0-1.1-0.2-1.5-0.7c-0.4-0.4-0.6-1.1-0.6-1.9v-6.9c0-0.9,0-1.6-0.1-2.1c-0.1-0.5-0.3-1-0.6-1.3c-0.3-0.4-0.8-0.5-1.5-0.5
		c-0.5,0-1.1,0.2-1.5,0.5c-0.5,0.3-0.9,0.8-1.1,1.3C146,131.9,145.9,133.1,145.9,134.9"/>
	<path class="st2" d="M171.3,137.5c0,1.1-0.3,2.1-0.8,2.9c-0.5,0.8-1.3,1.4-2.4,1.8c-1.1,0.4-2.4,0.6-3.9,0.6
		c-1.5,0-2.7-0.2-3.8-0.7c-1.1-0.5-1.8-1-2.3-1.7c-0.5-0.7-0.8-1.3-0.8-2c0-0.5,0.2-0.8,0.5-1.2c0.3-0.3,0.7-0.5,1.2-0.5
		c0.4,0,0.8,0.1,1,0.3c0.2,0.2,0.5,0.5,0.7,0.9c0.4,0.7,0.9,1.3,1.5,1.6c0.6,0.4,1.4,0.5,2.4,0.5c0.8,0,1.5-0.2,2-0.5
		c0.5-0.4,0.8-0.8,0.8-1.3c0-0.7-0.3-1.2-0.8-1.6c-0.5-0.3-1.4-0.6-2.7-0.9c-1.4-0.3-2.6-0.7-3.4-1.1c-0.9-0.4-1.6-0.9-2.1-1.5
		c-0.5-0.6-0.8-1.4-0.8-2.3c0-0.8,0.2-1.6,0.7-2.3c0.5-0.7,1.2-1.3,2.2-1.7c1-0.4,2.1-0.7,3.4-0.7c1.1,0,2,0.1,2.9,0.3
		c0.9,0.2,1.5,0.5,2.1,0.9c0.6,0.4,1,0.8,1.3,1.2c0.3,0.4,0.5,0.9,0.5,1.3c0,0.5-0.2,0.9-0.5,1.2c-0.3,0.3-0.8,0.5-1.3,0.5
		c-0.4,0-0.8-0.1-1.1-0.4c-0.3-0.2-0.6-0.6-1-1.1c-0.3-0.4-0.7-0.7-1.1-1c-0.4-0.2-1-0.4-1.7-0.4c-0.7,0-1.3,0.2-1.8,0.5
		c-0.5,0.3-0.7,0.7-0.7,1.2c0,0.4,0.2,0.8,0.5,1.1c0.3,0.3,0.8,0.5,1.4,0.7c0.6,0.2,1.5,0.4,2.5,0.7c1.3,0.3,2.3,0.7,3.1,1.1
		c0.8,0.4,1.4,0.9,1.8,1.5C171.1,136.1,171.3,136.8,171.3,137.5"/>
</g>
</svg>
